<svg xmlns="http://www.w3.org/2000/svg" width="51" height="51" fill="none" xmlns:v="https://vecta.io/nano"><g style="mix-blend-mode:color-dodge" stroke-miterlimit="10"><path d="M25.5 50.2166C39.0309 50.2166 50 39.2956 50 25.8239C50 12.3522 39.0309 1.43115 25.5 1.43115C11.969 1.43115 1 12.3522 1 25.8239C1 39.2956 11.969 50.2166 25.5 50.2166Z" stroke="url(#A)"/><path d="M25.5 42.2515C34.6127 42.2515 42 34.8966 42 25.8238C42 16.751 34.6127 9.396 25.5 9.396C16.3873 9.396 9 16.751 9 25.8238C9 34.8966 16.3873 42.2515 25.5 42.2515Z" stroke="url(#B)"/></g><defs><linearGradient id="A" x1=".284" y1="25.824" x2="50.716" y2="25.824" gradientUnits="userSpaceOnUse"><stop stop-color="#fff"/><stop offset=".7" stop-color="#67adda"/><stop offset="1" stop-color="#272525"/></linearGradient><linearGradient id="B" x1="8.265" y1="25.824" x2="42.735" y2="25.824" gradientUnits="userSpaceOnUse"><stop stop-color="#fff"/><stop offset=".7" stop-color="#67adda"/><stop offset="1" stop-color="#272525"/></linearGradient></defs></svg>