<svg width="47" height="50" viewBox="0 0 47 50" fill="none" xmlns="http://www.w3.org/2000/svg">
<path d="M23.4042 49.9989C17.8835 49.9989 12.3637 49.9989 6.84483 49.9989C2.91657 49.9989 0.0454852 47.1742 0.0303235 43.13C-0.0101078 32.2586 -0.0101078 21.3872 0.0303235 10.5158C0.0523769 6.48724 2.89313 3.71503 6.79108 3.68809H6.97991C8.87513 3.68809 8.87512 3.68809 9.06396 1.79788C9.16733 0.758482 9.88269 0.039551 10.8489 0.00126475C11.8661 -0.0313495 12.5829 0.568469 12.7869 1.60787C12.7869 1.63907 12.7869 1.6731 12.802 1.70288C13.0088 2.30978 12.6008 3.14216 13.148 3.54629C13.6952 3.95042 14.4974 3.68809 15.1824 3.68809C21.0803 3.70085 26.9782 3.67533 32.8761 3.71503C33.812 3.72212 34.1484 3.46688 34.1456 2.46718C34.1456 0.880431 34.77 0.103361 35.8851 0.0111908C37.0305 -0.0838158 37.8643 0.681909 37.9526 1.90707C38.0766 3.69376 38.0766 3.69376 39.8533 3.69518C43.4466 3.69518 45.918 5.49322 46.7381 8.70501C46.9133 9.39575 47.0013 10.1068 47 10.8207C47 21.4643 47 32.1074 47 42.75C47 46.4071 45.011 49.1112 41.8546 49.8727C41.2923 50.0074 40.7285 49.9974 40.162 49.9974C34.5724 50.0003 28.9865 50.0008 23.4042 49.9989ZM23.4042 46.1575C28.9176 46.1575 34.4406 46.166 39.9594 46.1575C42.0269 46.1575 43.1296 45.0231 43.1296 42.9145C43.137 32.2047 43.1406 21.4973 43.1406 10.7923C43.1406 8.6809 42.038 7.5706 39.9705 7.5394C38.1235 7.51104 38.1235 7.51104 37.9498 9.39983C37.8547 10.4293 37.1421 11.1653 36.1828 11.2248C35.2235 11.2844 34.435 10.6576 34.2297 9.63239C34.1555 9.35021 34.1234 9.05807 34.1346 8.76598C34.2462 7.76061 33.8134 7.51246 32.8789 7.51813C26.7618 7.55784 20.6434 7.53373 14.5263 7.54224C13.1342 7.54508 12.8172 7.23311 12.8654 9.04391C12.8612 9.27174 12.8288 9.49809 12.7689 9.71747C12.6733 10.1647 12.426 10.5622 12.0713 10.8389C11.7166 11.1155 11.2778 11.2532 10.8334 11.2273C10.3891 11.2013 9.9682 11.0135 9.64623 10.6973C9.32426 10.3811 9.12224 9.95738 9.07636 9.50193C9.03595 9.14703 9.02994 8.78887 9.05844 8.43275C9.1122 7.76345 8.85169 7.46283 8.18871 7.52948C7.91304 7.55642 7.62084 7.52948 7.3369 7.52948C4.88346 7.53657 3.87175 8.56321 3.87175 11.0617C3.87175 21.5739 3.87175 32.0852 3.87175 42.5954C3.87175 45.0996 4.88483 46.1405 7.3176 46.1405C12.6812 46.1546 18.0434 46.1603 23.4042 46.1575Z" fill="#2639FF"/>
<path d="M13.221 30.6558C11.9805 30.6828 10.8531 29.5611 10.8213 28.2665C10.7896 26.9719 11.8868 25.8091 13.1397 25.8091C14.3926 25.8091 15.5242 26.9109 15.5463 28.1913C15.5683 29.4718 14.4712 30.6303 13.221 30.6558Z" fill="#2639FF"/>
<path d="M23.0623 25.8091C24.3028 25.7963 25.4054 26.9279 25.4165 28.2381C25.4302 29.4845 24.2614 30.6828 23.0512 30.6643C22.4254 30.6628 21.8258 30.4056 21.3843 29.9493C20.9428 29.493 20.6956 28.8749 20.697 28.231C20.6985 27.5872 20.9485 26.9703 21.3921 26.5161C21.8356 26.0619 22.4364 25.8076 23.0623 25.8091Z" fill="#2639FF"/>
<path d="M13.1385 21.365C11.8263 21.3479 10.7732 20.249 10.8229 18.9543C10.844 18.3172 11.1076 17.7142 11.5569 17.2752C12.0061 16.8361 12.6051 16.5963 13.2246 16.6072C13.8442 16.6182 14.4347 16.8791 14.869 17.3338C15.3033 17.7885 15.5466 18.4005 15.5464 19.038C15.5382 20.3085 14.4272 21.3834 13.1385 21.365Z" fill="#2639FF"/>
<path d="M23.0085 39.8587C22.7028 39.8526 22.4012 39.7847 22.121 39.6587C21.8408 39.5328 21.5875 39.3513 21.3755 39.1246C21.1635 38.8979 20.9969 38.6305 20.8854 38.3376C20.7738 38.0447 20.7194 37.7321 20.7253 37.4176C20.7312 37.103 20.7972 36.7928 20.9196 36.5045C21.0421 36.2163 21.2185 35.9556 21.4388 35.7375C21.6592 35.5194 21.9191 35.3481 22.2038 35.2333C22.4885 35.1185 22.7924 35.0626 23.0981 35.0686C24.362 35.0913 25.4413 36.2328 25.4151 37.509C25.3889 38.7852 24.278 39.8771 23.0085 39.8587Z" fill="#2639FF"/>
<path d="M32.9726 35.0701C33.2781 35.0754 33.5797 35.1426 33.86 35.2677C34.1403 35.3929 34.3939 35.5737 34.6063 35.7997C34.8187 36.0257 34.9857 36.2926 35.0979 36.585C35.21 36.8775 35.2651 37.1898 35.2599 37.5041C35.2548 37.8184 35.1895 38.1286 35.0678 38.417C34.9461 38.7054 34.7704 38.9663 34.5507 39.1848C34.331 39.4033 34.0716 39.5752 33.7874 39.6905C33.5031 39.8059 33.1996 39.8626 32.894 39.8573C31.5681 39.8346 30.6115 38.8065 30.6267 37.4226C30.6215 37.107 30.6791 36.7936 30.7959 36.5018C30.9128 36.2099 31.0864 35.9457 31.3061 35.7254C31.5258 35.5051 31.7869 35.3333 32.0735 35.2206C32.3601 35.1079 32.6661 35.0567 32.9726 35.0701Z" fill="#2639FF"/>
<path d="M23.0445 21.3664C22.4266 21.3664 21.8337 21.1154 21.3949 20.6679C20.956 20.2204 20.7067 19.6127 20.7013 18.9771C20.7013 17.7009 21.8122 16.5665 23.0665 16.5806C24.3208 16.5948 25.4276 17.7377 25.4097 19.004C25.4061 19.3192 25.342 19.6305 25.221 19.9201C25.1 20.2097 24.9246 20.4718 24.7047 20.6914C24.4849 20.9109 24.2251 21.0836 23.9401 21.1995C23.6552 21.3153 23.3508 21.372 23.0445 21.3664Z" fill="#2639FF"/>
<path d="M30.628 19.021C30.6156 17.654 31.6067 16.5891 32.8995 16.5806C33.5187 16.5877 34.1115 16.8394 34.5553 17.2836C34.9992 17.7278 35.2601 18.3305 35.2841 18.9671C35.2887 19.2821 35.232 19.5949 35.1174 19.887C35.0027 20.1791 34.8325 20.4447 34.6166 20.6681C34.4007 20.8916 34.1435 21.0683 33.8603 21.188C33.577 21.3076 33.2733 21.3678 32.9671 21.3649C31.6012 21.3763 30.6391 20.4092 30.628 19.021Z" fill="#2639FF"/>
<path d="M30.6281 28.2409C30.6225 27.6052 30.8613 26.993 31.2924 26.5375C31.7235 26.0821 32.312 25.8202 32.9299 25.809C34.1704 25.7977 35.2731 26.9435 35.28 28.2197C35.2868 29.4959 34.1773 30.6558 32.9368 30.6558C32.6308 30.6539 32.3283 30.5899 32.0465 30.4674C31.7647 30.3449 31.5091 30.1664 31.2946 29.942C31.0801 29.7176 30.9108 29.4518 30.7964 29.1599C30.682 28.8679 30.6248 28.5557 30.6281 28.2409Z" fill="#2639FF"/>
<path d="M13.21 39.8587C11.9434 39.8715 10.8352 38.7754 10.8145 37.4935C10.7938 36.2116 11.8924 35.0829 13.1577 35.0673C13.7759 35.0662 14.3702 35.3131 14.8144 35.7555C15.2586 36.1979 15.5177 36.801 15.5367 37.4368C15.5574 38.7229 14.4795 39.8474 13.21 39.8587Z" fill="#2639FF"/>
</svg>
