<svg width="54" height="65" viewBox="0 0 54 65" fill="none" xmlns="http://www.w3.org/2000/svg">
<path d="M26.6027 0C31.477 0 36.3487 0 41.2281 0C44.1078 0 45.6081 1.44993 45.5653 4.32962C45.5476 5.49965 45.9107 5.9258 47.0782 5.81233C47.9176 5.74916 48.7605 5.74916 49.5998 5.81233C51.2918 5.90815 52.8779 7.12861 53.062 8.78783C53.6521 13.8311 51.8012 21.9759 44.9928 24.9464C43.6958 25.4832 42.6426 26.4799 42.035 27.7453C40.1694 31.2988 37.4654 34.3438 34.1575 36.6164C32.4075 37.8167 31.656 39.3372 31.7317 41.4075C31.7846 42.8751 31.767 44.3477 31.7317 45.8178C31.714 46.5591 31.8754 47.0584 32.6344 47.4089C33.3676 47.7394 34.0082 48.2454 34.4994 48.8823C34.9907 49.5191 35.3175 50.2671 35.4511 51.0602C35.5872 51.7461 35.8848 51.9251 36.5379 51.963C39.2335 52.1168 40.5523 53.5339 40.5725 56.2346C40.5725 58.4612 40.5876 60.6903 40.5725 62.9169C40.5598 64.3189 40.1614 64.7299 38.7619 64.7324C30.6541 64.7425 22.5454 64.7425 14.4359 64.7324C13.102 64.7324 12.6708 64.3138 12.6708 63.0051C12.6481 60.5692 12.6304 58.1308 12.6708 55.6924C12.6668 55.2069 12.7588 54.7254 12.9415 54.2756C13.1242 53.8258 13.3941 53.4166 13.7355 53.0714C14.0769 52.7262 14.4832 52.4519 14.931 52.2643C15.3788 52.0767 15.8593 51.9794 16.3448 51.9781C17.2399 51.9554 17.661 51.7436 17.8577 50.7778C18.1628 49.2094 19.1791 48.0671 20.6315 47.3862C21.3123 47.0635 21.5216 46.6297 21.5065 45.9086C21.4687 44.1863 21.5065 42.4615 21.4863 40.7392C21.4611 39.1809 20.8837 37.9226 19.5472 36.9921C15.6824 34.3355 12.5735 30.7209 10.5249 26.5022C10.4301 26.271 10.2884 26.062 10.1087 25.8883C9.92903 25.7147 9.71525 25.5803 9.48092 25.4935C3.9258 23.509 1.38149 19.2072 0.304755 13.7705C0.044068 12.3652 -0.0498813 10.9339 0.0248554 9.5065C0.0475262 8.52952 0.447441 7.59924 1.1408 6.91058C1.83415 6.22193 2.76714 5.82835 3.74424 5.81233C4.45786 5.78459 5.174 5.81233 5.88761 5.81233C7.56953 5.79972 7.56953 5.79972 7.56953 4.17075C7.52882 3.41262 7.69532 2.65771 8.05116 1.98703C8.85304 0.635447 10.0357 0 11.6041 0C16.602 0.0100865 21.6015 0.0100865 26.6027 0ZM26.633 2.70569C21.8822 2.70569 17.134 2.70569 12.3858 2.70569C10.7291 2.70569 10.3004 3.14698 10.2904 4.80872C10.2752 7.83466 10.2223 10.8606 10.3055 13.8865C10.3862 16.9604 10.8098 19.9889 11.9445 22.8887C13.7522 27.6813 16.97 31.8135 21.1737 34.7403C23.2212 36.1726 24.2601 38.0739 24.1719 40.6258C24.0886 43.0188 24.1391 45.4168 24.1719 47.8099C24.1719 48.8437 23.8037 49.4817 22.7118 49.6481C21.9024 49.7717 21.1737 50.1146 20.7778 50.9089C20.4878 51.4813 20.3718 51.9529 21.3149 51.9478C24.8451 51.931 28.3754 51.931 31.9057 51.9478C32.7176 51.9478 32.7277 51.5645 32.4655 50.9947C32.2923 50.6307 32.0273 50.3181 31.6965 50.0877C31.3658 49.8574 30.9807 49.7172 30.5793 49.6809C29.3613 49.5044 28.9957 48.7958 29.0184 47.6636C29.0562 45.6463 29.1571 43.629 28.9982 41.6117C28.7461 38.3336 30.08 36.0818 32.7126 34.1654C38.0761 30.2644 41.2861 24.9111 42.4359 18.3675C43.2202 13.9067 42.8217 9.39807 42.8873 4.90959C42.915 3.10915 42.4788 2.70822 40.6405 2.70569C35.9671 2.70233 31.2979 2.70317 26.633 2.70822V2.70569ZM26.5825 62.0318C29.9447 62.0318 33.3068 62.0318 36.669 62.0318C37.2994 62.0318 37.8642 62.0318 37.8516 61.1467C37.8264 59.5076 37.8516 57.8686 37.8264 56.2321C37.8037 55.1452 37.1456 54.6611 36.1041 54.6586C29.7648 54.6586 23.4246 54.6586 17.0836 54.6586C15.8757 54.6586 15.3386 55.3117 15.3412 56.4842C15.3412 57.9115 15.3941 59.3412 15.321 60.771C15.268 61.7947 15.6715 62.0671 16.6398 62.0519C19.9456 62.004 23.2641 62.0318 26.5825 62.0318ZM8.57818 22.0389C8.29828 20.5411 8.05621 19.3282 7.84943 18.1103C7.37285 15.3365 7.66283 12.5097 7.5771 9.71075C7.56197 9.23416 7.72083 8.57854 6.97695 8.54576C5.93355 8.49105 4.8875 8.51465 3.84763 8.61636C3.05836 8.7021 2.72803 9.32998 2.79359 10.0865C2.91211 11.4204 2.96758 12.772 3.25505 14.0731C3.96362 17.263 5.34295 20.062 8.57818 22.0389ZM44.5062 21.8649C45.4114 21.6909 45.8174 21.2522 46.241 20.8563C48.8106 18.5238 49.8898 15.4827 50.205 12.1466C50.5354 8.6668 50.8632 8.42976 46.6369 8.48776C45.8981 8.48776 45.5829 8.73992 45.5829 9.49641C45.5703 13.6167 45.8628 17.7169 44.5037 21.8649H44.5062Z" fill="#F37121"/>
<path d="M19.7263 25.3398C19.928 24.1395 20.0768 22.9266 20.3516 21.7439C20.6038 20.695 20.4172 19.8855 19.5724 19.1593C18.6823 18.4028 17.888 17.5177 17.0508 16.7007C16.5289 16.1964 16.2263 15.6215 16.4683 14.8952C16.7104 14.169 17.3106 14.0101 17.9561 13.9118C19.1589 13.7328 20.3592 13.4983 21.5696 13.4075C22.5379 13.3394 23.0825 12.9032 23.4759 12.0508C23.9802 10.8985 24.5526 9.78139 25.1528 8.66179C25.9093 7.24465 27.1323 7.21691 27.9266 8.61893C28.5218 9.68127 29.0581 10.7756 29.5328 11.897C29.9388 12.8452 30.5415 13.3495 31.6081 13.41C32.7756 13.4856 33.9331 13.7302 35.0955 13.9143C35.789 14.0202 36.4168 14.2547 36.6614 14.9936C36.8934 15.6895 36.5379 16.2241 36.0764 16.6805C35.088 17.6505 34.0877 18.6096 33.0757 19.5577C32.8652 19.7277 32.7089 19.9555 32.6261 20.213C32.5432 20.4706 32.5373 20.7468 32.6092 21.0076C32.9068 22.4021 33.1261 23.8142 33.3354 25.2238C33.5548 26.6964 32.5336 27.4932 31.187 26.8805C30.0359 26.3684 28.9175 25.7857 27.8383 25.1355C26.933 24.5732 26.1614 24.5934 25.2688 25.1355C24.1873 25.7829 23.072 26.3721 21.9276 26.9007C20.6214 27.4857 19.6405 26.7544 19.7263 25.3398ZM26.5145 12.3207C25.6975 15.2634 23.8264 16.4612 20.9341 16.2998C21.039 16.501 21.1641 16.6911 21.3073 16.8671C23.0245 18.2036 23.9928 19.7267 23.1859 22.0591C22.8203 23.1157 23.6903 22.8736 24.1946 22.513C25.7378 21.3934 27.2407 21.3228 28.8041 22.4651C29.0865 22.6719 29.4824 23.0174 29.8127 22.7677C30.2288 22.4651 29.9287 21.9709 29.8127 21.6053C29.2504 19.9158 29.6841 18.5793 31.1063 17.5303C31.3481 17.3841 31.5584 17.1914 31.725 16.9633C31.8917 16.7351 32.0114 16.4762 32.0771 16.2014C29.142 16.5494 27.3869 15.1903 26.5145 12.3207Z" fill="#F37121"/>
<path d="M24.0634 59.6867C23.2691 59.6867 22.4723 59.7018 21.678 59.6867C20.8004 59.664 20.2179 59.2479 20.2305 58.32C20.2305 57.4601 20.7878 57.0289 21.6124 57.0163C23.243 56.9877 24.8745 56.9877 26.5069 57.0163C27.3289 57.0163 27.8811 57.4551 27.8937 58.3149C27.9063 59.2429 27.3289 59.664 26.4489 59.6867C25.6545 59.7018 24.8602 59.6867 24.0634 59.6867Z" fill="#F37121"/>
</svg>
