<svg width="74" height="59" viewBox="0 0 74 59" fill="none" xmlns="http://www.w3.org/2000/svg">
<path d="M48.8011 8.74203C50.2457 7.45126 51.7901 6.49388 53.645 6.09212C55.0166 5.79115 56.4379 5.79845 57.8063 6.1135C59.1747 6.42855 60.4561 7.04349 61.5579 7.91392C62.6598 8.78436 63.5547 9.88858 64.178 11.1469C64.8013 12.4052 65.1374 13.7862 65.1621 15.1901C65.1906 17.0394 65.1621 18.8943 65.1621 20.7436C65.1963 23.7496 63.9853 26.1773 61.7286 28.0921C61.136 28.5964 60.7399 29.0922 60.8738 29.9014C61.0078 30.7106 61.7685 30.665 62.3213 30.8075C64.1563 31.2834 66.0625 31.5113 67.7522 32.4487C71.1914 34.3578 73.0435 37.2699 73.109 41.2219C73.1631 44.2594 73.1347 47.2996 73.109 50.3399C73.109 52.0096 72.656 52.4541 70.9891 52.4655C67.9032 52.4826 64.8145 52.5111 61.7315 52.4513C60.5918 52.4285 60.2384 52.8217 60.2726 53.933C60.4065 58.509 60.2726 58.1785 55.9986 58.17C51.7245 58.1614 47.4505 58.17 43.1764 58.17C42.5553 58.17 41.9256 58.1956 41.4497 57.6884C41.2397 57.4732 41.0987 57.2002 41.0447 56.9044C40.9908 56.6086 41.0264 56.3034 41.147 56.0279C41.2676 55.7525 41.4677 55.5193 41.7216 55.3583C41.9755 55.1972 42.2718 55.1156 42.5724 55.124C44.376 55.1069 46.1797 55.0699 47.9862 55.124C48.9749 55.1496 49.3539 54.7849 49.3197 53.799C49.2712 52.3288 49.294 50.8556 49.3197 49.3854C49.3425 48.3254 49.7385 47.4564 50.9524 47.4706C52.1662 47.4848 52.5252 48.3767 52.5451 49.4253C52.5765 50.944 52.5765 52.4627 52.5594 53.9842C52.5594 54.7422 52.8443 55.067 53.6393 55.124C57.1013 55.3662 57.1497 55.3348 57.0785 51.8928C57.0557 50.8015 57.0956 49.7102 57.0785 48.6189C56.9474 43.7493 53.9869 40.0395 49.2598 38.8342C47.4191 38.3669 45.5557 38.005 43.7264 37.4978C42.7148 37.2129 42.2532 37.5691 41.8771 38.4581C40.7374 41.1251 39.5691 43.7693 38.4037 46.4192C38.039 47.2483 37.717 48.143 36.583 48.163C35.449 48.1829 35.0956 47.3082 34.7281 46.4733C33.5883 43.8662 32.3916 41.2789 31.3259 38.6376C30.8472 37.4579 30.2204 37.1872 29.0293 37.5491C27.3966 38.0477 25.7127 38.3697 24.0572 38.7829C19.1506 39.9996 16.1075 43.7009 15.8824 48.7956C15.8054 50.5052 15.8824 52.2148 15.8539 53.9244C15.8368 54.7621 16.1388 55.1325 17.0079 55.1154C21.2677 55.0442 20.4527 55.6483 20.5411 51.7361C20.561 50.8357 20.5154 49.9296 20.5924 49.0321C20.6693 48.1345 21.1423 47.4877 22.1196 47.4649C23.1682 47.4393 23.701 48.1089 23.7523 49.0662C23.8378 50.536 23.8463 52.0092 23.778 53.4799C23.7153 54.6937 24.08 55.2209 25.3736 55.1325C26.7983 55.0357 28.223 55.1097 29.6476 55.1154C30.682 55.1154 31.4684 55.5115 31.4598 56.6513C31.4513 57.791 30.6506 58.1614 29.622 58.1614H14.6828C13.4604 58.1614 12.8278 57.5915 12.8278 56.3407C12.8278 55.4859 12.7794 54.6311 12.8278 53.7762C12.8934 52.7875 12.503 52.437 11.5114 52.4513C8.47401 52.494 5.43374 52.4712 2.39347 52.4513C0.364719 52.4513 0.00569873 52.0809 0 50.0265C0 47.1287 0 44.2337 0 41.3359C0.0256443 36.7114 2.88926 32.9246 7.35706 31.6481C8.63073 31.2805 9.94144 31.0355 11.2236 30.6907C12.4061 30.3687 12.7623 29.2261 11.7935 28.4767C8.59084 25.9664 7.69044 22.607 7.97537 18.7376C8.04946 17.6491 7.97537 16.5521 7.98962 15.4608C8.00672 11.4461 9.90154 8.52547 13.4348 6.813C17.0107 5.08344 20.4727 5.61057 23.5642 8.10377C24.2595 8.67364 24.4874 8.76767 24.9063 7.83878C27.1488 2.8011 31.1179 -0.0254713 36.5915 0.000172984C42.2304 0.0286666 46.2794 2.91222 48.4706 8.20634C48.5665 8.39328 48.677 8.5724 48.8011 8.74203ZM46.1569 18.598C45.9745 17.7232 46.6327 16.5065 45.322 15.7914C44.0113 15.0762 42.6949 14.2726 41.3899 13.4976C40.8969 13.2127 40.461 13.1186 39.9652 13.5432C37.3238 15.8312 34.1895 16.8399 30.6962 17.008C29.5137 17.065 27.9466 16.3897 27.2143 17.4867C26.5361 18.504 27.0604 19.9742 27.2143 21.245C27.3729 22.5671 27.8088 23.8408 28.4936 24.9828C29.1783 26.1249 30.0964 27.1094 31.1878 27.8722C32.2793 28.635 33.5195 29.1587 34.8272 29.4092C36.135 29.6597 37.481 29.6313 38.777 29.3258C43.5041 28.1804 46.1569 24.3708 46.1569 18.598ZM70.0915 44.9689C70.0915 43.926 70.1229 42.8803 70.0915 41.8346C69.9548 37.8454 68.0485 35.4947 64.1905 34.5174C63.2702 34.2866 62.327 34.1356 61.4295 33.8449C60.5975 33.56 60.2071 33.8848 59.9136 34.6228C59.3038 36.1672 58.6884 37.7115 57.9931 39.216C57.617 40.0252 57.5942 40.6407 58.147 41.4214C59.3081 43.1113 60.037 45.0602 60.2698 47.0973C60.5832 49.4395 60.5547 49.4424 62.9111 49.4082C63.006 49.4009 63.1012 49.4009 63.1961 49.4082C64.1449 49.5079 64.4441 49.0434 64.4184 48.1459C64.3757 46.63 64.4184 45.1113 64.4184 43.5869C64.4184 42.5013 64.7803 41.655 66.0112 41.6921C67.151 41.7291 67.473 42.5668 67.4701 43.5812C67.4701 45.1484 67.51 46.7155 67.4701 48.277C67.4388 49.3113 68.0115 49.4167 68.8236 49.4167C69.6784 49.4167 70.1827 49.223 70.1314 48.2314C70.0545 47.1515 70.0915 46.0602 70.0915 44.9689ZM3.06307 44.607C3.06307 46.0117 3.10296 47.1515 3.06307 48.2855C3.01463 49.3198 3.6016 49.4253 4.41367 49.4253C5.26848 49.4253 5.75572 49.2344 5.72437 48.2428C5.67309 46.6813 5.72437 45.1085 5.72437 43.5499C5.72437 42.5269 6.07485 41.7206 7.22029 41.7006C8.36574 41.6807 8.76465 42.4557 8.7732 43.49C8.78174 44.5244 8.7732 45.5758 8.7732 46.6243C8.83303 49.6874 8.14919 49.3996 11.7194 49.4224C12.4916 49.4224 12.8592 49.1375 12.8421 48.3482C12.7851 45.6869 13.7311 43.3333 15.1672 41.1564C15.3286 40.9548 15.4322 40.713 15.4668 40.4571C15.5014 40.2011 15.4658 39.9405 15.3638 39.7032C14.6258 37.9566 13.8878 36.2099 13.1698 34.4547C12.9048 33.8079 12.5144 33.6341 11.8306 33.8335C10.4657 34.2296 9.05243 34.4661 7.71323 34.9277C5.21434 35.7825 3.78966 37.6089 3.27962 40.199C2.96334 41.7519 3.11151 43.3105 3.06307 44.607ZM46.0543 12.5374C45.6725 6.90134 41.5096 3.02905 36.2268 3.17722C31.2034 3.31683 27.1089 7.60513 27.0262 12.771C27.0262 13.3808 27.1431 13.7769 27.8554 13.811C31.8986 14.002 35.7538 13.5802 38.7029 10.3662C39.6461 9.33469 40.5892 9.29765 41.7233 10.0014C43.0853 10.8278 44.4928 11.6113 46.0543 12.5374ZM23.9318 19.222C23.916 18.9373 23.916 18.6519 23.9318 18.3672C24.0515 17.2901 23.8235 16.8627 22.6411 17.4183C21.6459 17.8607 20.6054 18.1932 19.5381 18.4099C17.1731 18.9314 14.7569 19.0054 12.3435 19.0197C11.6197 19.0197 11.0726 19.1109 11.0185 20.0654C10.839 23.157 13.0131 26.2485 15.928 26.9039C19.1135 27.6105 22.1709 26.0719 23.3619 23.1256C23.8634 21.8804 23.9546 20.5526 23.9318 19.222ZM55.6424 27.1261C58.9733 27.1546 61.5634 24.6643 62.062 20.9544C62.2871 19.2733 62.0905 19.0567 60.4151 19.0197C57.5657 18.9542 54.7506 18.8402 51.9952 18.0053C51.1148 17.7375 50.0491 16.7573 49.4308 17.3186C48.8125 17.8799 49.2142 19.202 49.2456 20.1851C49.3653 24.2198 52.0408 27.0919 55.6424 27.1261ZM13.9248 15.7971C16.8882 15.7971 19.7603 15.3725 22.4729 14.0874C23.3676 13.66 23.5386 13.1357 23.02 12.2952C21.6523 10.0698 19.6806 8.97852 17.0933 9.13239C14.5517 9.2834 12.7167 10.5571 11.6795 12.885C10.554 15.4124 10.8247 15.7971 13.5031 15.7971H13.9248ZM59.1186 15.7971C59.7825 15.7971 60.4436 15.7828 61.1132 15.7971C61.8455 15.817 62.0962 15.5606 62.0022 14.7713C61.8621 13.4546 61.3148 12.2144 60.4367 11.2234C59.5585 10.2323 58.3932 9.53984 57.1029 9.24228C55.8127 8.94472 54.4617 9.05693 53.2383 9.56328C52.0148 10.0696 50.9797 10.9449 50.2771 12.0672C49.6559 13.0417 49.7072 13.6401 50.8469 14.1558C53.4797 15.3583 56.2522 15.7914 59.1186 15.7914V15.7971ZM39.931 34.1185C39.9538 32.5143 39.8569 32.443 38.247 32.6681C36.9851 32.8826 35.6932 32.8448 34.446 32.557C33.5228 32.3177 33.1638 32.5941 33.2037 33.5885C33.3233 36.6943 35.1469 39.1618 36.2981 41.8716C36.583 42.564 36.9563 41.8032 37.1044 41.4812C37.6971 40.1933 38.2584 38.8912 38.8141 37.589C39.2899 36.472 40.0136 35.4178 39.931 34.1128V34.1185ZM22.698 29.5595C22.6097 30.2747 23.0628 30.5511 23.7523 30.7163C25.5873 31.158 27.4565 31.4743 29.1974 32.2493C29.7987 32.5171 29.9354 32.2493 29.9611 31.6794C29.9896 31.0127 29.6135 30.6422 29.1291 30.3032C28.1257 29.5917 27.241 28.7262 26.5076 27.7387C25.4477 26.3369 25.4192 26.3141 24.2111 27.5621C23.6469 28.1434 22.6724 28.4254 22.698 29.5538V29.5595ZM50.4623 29.5965C50.448 28.9298 50.448 28.9298 49.1743 27.7644C47.7126 26.428 47.7126 26.428 46.5045 27.9809C45.7139 28.9857 44.7718 29.8614 43.7121 30.5767C43.1422 30.9614 43.1166 31.5256 43.2505 32.0983C43.3474 32.5114 43.6893 32.3633 43.9401 32.2521C45.6839 31.4857 47.5531 31.1608 49.388 30.7192C50.0662 30.5511 50.5477 30.2946 50.4623 29.5908V29.5965ZM17.2871 36.076L17.6518 36.1073C18.0906 35.0759 18.5437 34.0472 18.9682 33.0072C19.9427 30.6166 19.6578 30.2262 17.0933 30.2405C15.5832 30.2405 15.2128 30.6764 15.6972 32.1353C16.1388 33.4774 16.7486 34.7624 17.2871 36.076ZM55.7165 36.3381C56.2294 35.1471 56.6796 34.1783 57.0642 33.1839C58.033 30.6793 58.0188 30.0496 55.1922 30.2262C53.8046 30.3146 53.4512 30.6081 53.8302 31.9359C54.2751 33.4754 54.9087 34.9541 55.7165 36.3381ZM46.57 34.6712L46.6128 34.8878L51.9439 36.2156C51.1547 33.5514 51.1547 33.5543 48.7498 34.1413C48.0232 34.3208 47.2966 34.4946 46.57 34.6712ZM21.3076 36.2128L26.3965 34.8764L26.3566 34.6228L24.2994 34.1156C21.9515 33.5344 21.7635 33.6626 21.3076 36.2128Z" fill="#F37121"/>
<path d="M36.5431 26.5306C36.0213 26.559 35.4995 26.4741 35.0135 26.2818C34.5276 26.0895 34.089 25.7943 33.7279 25.4165C33.1752 24.8466 33.0298 24.1571 33.5 23.4789C33.9701 22.8008 34.6939 22.4674 35.4661 22.9404C36.2382 23.4134 36.8423 23.3535 37.5774 22.9404C38.3126 22.5272 39.079 22.7181 39.5549 23.4476C40.0307 24.177 39.8398 24.9093 39.2472 25.502C38.897 25.8578 38.4741 26.1339 38.0074 26.3115C37.5408 26.489 37.0413 26.5637 36.5431 26.5306Z" fill="#F37121"/>
<path d="M41.3129 17.9512C42.2105 18.0851 42.8573 18.5438 42.8488 19.487C42.8601 19.6902 42.8287 19.8935 42.7567 20.0838C42.6846 20.2742 42.5734 20.4473 42.4303 20.592C42.2872 20.7367 42.1154 20.8498 41.9258 20.924C41.7363 20.9982 41.5334 21.0319 41.33 21.0228C40.3869 21.0399 39.8313 20.413 39.8113 19.5041C39.7914 18.5951 40.3983 18.0651 41.3129 17.9512Z" fill="#F37121"/>
<path d="M33.2977 19.4671C33.2464 20.4245 32.7278 20.9915 31.8046 21.0057C30.8814 21.02 30.3001 20.4359 30.2888 19.5041C30.2774 18.5724 30.8871 18.0054 31.7904 17.9797C32.6936 17.9541 33.2378 18.5211 33.2977 19.4671Z" fill="#F37121"/>
</svg>
