<svg width="61" height="67" viewBox="0 0 61 67" fill="none" xmlns="http://www.w3.org/2000/svg">
<path d="M30.4267 0.00927555C35.2264 0.00927555 40.0262 -0.0115944 44.8233 0.00927555C51.0265 0.0431893 54.7928 3.72413 54.8668 9.83904C54.9118 13.5748 54.9012 17.3131 54.8668 21.0567C54.8668 21.9462 55.1179 22.4315 55.9901 22.8384C59.2807 24.375 60.9802 26.9968 60.9881 30.6099C61.004 37.2605 61.004 43.9101 60.9881 50.559C60.9723 55.2417 58.7177 58.0304 54.0818 59.0504C53.2361 59.2357 53.0088 59.5957 53.0246 60.3548C53.059 61.5705 53.0669 62.7914 53.0246 64.0071C52.9506 65.8958 51.8406 66.9367 49.9138 66.968C48.9887 66.9837 48.0637 67.0019 47.1386 66.968C45.5528 66.8923 44.5114 65.8749 44.4427 64.3149C44.3845 62.9688 44.3898 61.6201 44.4427 60.2739C44.4691 59.4131 44.1097 59.1418 43.2692 59.1444C34.7709 59.1635 26.2727 59.1635 17.7744 59.1444C16.815 59.1444 16.5586 59.5357 16.5904 60.3966C16.6353 61.6566 16.6274 62.9192 16.5904 64.1792C16.5348 65.8932 15.4935 66.9158 13.7649 66.9784C12.8425 67.0097 11.9148 67.0045 10.9924 66.9784C9.21892 66.9341 8.10356 65.9088 8.01105 64.161C7.94233 62.9036 7.96347 61.6383 7.99255 60.3809C8.01105 59.627 7.81282 59.2435 6.96176 59.0452C2.05364 57.9078 0.0158582 55.3147 0 50.3242C0 43.7606 0 37.1996 0 30.636C0 26.942 1.66776 24.3098 5.05878 22.8097C5.90455 22.4341 6.11599 21.9515 6.11599 21.1193C6.08427 17.514 6.09485 13.9061 6.11599 10.2982C6.1107 3.54413 9.68145 0.0327543 16.556 0.00927555C21.1787 0.00927555 25.8013 0.00927555 30.4267 0.00927555ZM30.5615 2.96499V2.9989C25.5 2.9989 20.4333 2.92846 15.3719 3.01977C11.5924 3.09021 9.24271 5.5033 9.17927 9.25207C9.1132 13.1182 9.17927 16.987 9.14491 20.8558C9.14491 21.6645 9.37221 22.0584 10.2471 22.2984C14.2116 23.3863 16.4899 26.3315 16.5296 30.4455C16.5296 31.6195 16.9604 31.9169 18.0784 31.9116C26.3599 31.8786 34.6414 31.8786 42.9229 31.9116C44.0621 31.9116 44.448 31.5856 44.448 30.4299C44.448 26.2559 46.7368 23.355 50.8283 22.2619C51.5736 22.061 51.8353 21.7401 51.8326 21.0227C51.8115 17.154 51.8881 13.2852 51.7956 9.41903C51.7031 6.0094 50.0274 3.84153 47.0461 3.18412C46.0932 3.01544 45.1248 2.94723 44.1572 2.98064C39.6456 2.96238 35.0969 2.97281 30.5615 2.97281V2.96499ZM30.4055 56.1834H32.5199C39.1275 56.1834 45.7351 56.2069 52.3427 56.16C55.924 56.1365 57.7372 54.3156 57.9063 50.7677C57.9222 50.4207 57.9354 50.0711 57.9354 49.7242C57.9354 43.3762 57.9354 37.0283 57.9354 30.6803C57.9534 30.0733 57.8921 29.4666 57.753 28.8751C57.0976 26.4568 54.6342 24.7428 52.3004 25.0298C49.549 25.3637 47.543 27.4037 47.5033 30.062C47.4505 34.7995 47.4848 39.5396 47.4769 44.2771C47.4769 46.6537 47.0355 47.0919 44.6251 47.0919C35.1965 47.0919 25.7696 47.0919 16.3445 47.0919C14.0028 47.0919 13.535 46.6354 13.5324 44.3658C13.5324 39.8031 13.5324 35.2352 13.5324 30.6725C13.5324 27.4011 11.2567 24.975 8.278 24.9985C5.29929 25.0219 3.09764 27.4194 3.07385 30.7221C3.07385 32.243 3.07385 33.7639 3.07385 35.2874C3.07385 40.3718 3.058 45.4615 3.07385 50.5459C3.095 54.3521 4.86848 56.0895 8.74317 56.173C9.27178 56.173 9.80039 56.173 10.329 56.173L30.4055 56.1834ZM30.5059 34.9091C26.3273 34.9091 22.146 34.9404 17.9674 34.8882C16.8652 34.8752 16.5084 35.243 16.5401 36.3126C16.6036 38.4831 16.5956 40.6562 16.5401 42.8345C16.5163 43.8049 16.8811 44.1101 17.8617 44.1075C26.2189 44.0815 34.5771 44.0815 42.9362 44.1075C43.9062 44.1075 44.2709 43.7736 44.2577 42.8188C44.2154 40.6483 44.2022 38.4753 44.2577 36.297C44.2894 35.2013 43.8639 34.8752 42.7881 34.8882C38.6888 34.943 34.5974 34.9143 30.5059 34.9143V34.9091ZM11.0215 61.5522C11.0215 61.8549 11.0215 62.1601 11.0215 62.4627C10.9898 63.2897 10.966 63.9914 12.1923 64.0071C13.4187 64.0227 13.5931 63.4436 13.5297 62.4783C13.4835 61.8287 13.4835 61.1766 13.5297 60.527C13.6064 59.5513 13.2918 59.1235 12.2082 59.1287C11.1245 59.1339 10.9501 59.6505 11.0188 60.5113C11.0453 60.8557 11.0215 61.2053 11.0215 61.5522ZM49.7975 61.5783C49.7975 61.2314 49.7843 60.887 49.7975 60.5348C49.8345 59.7131 49.6997 59.1339 48.616 59.1287C47.5324 59.1235 47.3738 59.6505 47.4082 60.5009C47.4399 61.2835 47.4373 62.0505 47.4082 62.8253C47.3817 63.6445 47.7386 63.9862 48.579 63.981C49.4195 63.9758 49.8266 63.7071 49.7922 62.8618C49.7843 62.4392 49.7975 62.0088 49.7975 61.5757V61.5783Z" fill="#F37121"/>
</svg>
