<svg width="63" height="62" viewBox="0 0 63 62" fill="none" xmlns="http://www.w3.org/2000/svg">
<path d="M43.4625 41.3518C43.4625 43.9308 42.5364 45.6638 40.1227 46.6993C29.0924 51.3735 18.1009 56.1424 7.09968 60.8895C5.66559 61.5094 4.23878 61.7573 2.76094 61.0913C0.313252 59.9805 -0.656585 57.3456 0.461523 54.7448C3.02021 48.7945 5.59104 42.8507 8.17404 36.9134C10.3787 31.8236 12.5979 26.7411 14.7952 21.6513C16.2293 18.3358 18.5214 17.1764 21.9997 18.1632C22.9331 18.4282 23.3997 18.3164 24.0828 17.4997C25.5655 15.7253 26.9996 13.7807 29.5615 13.3359C30.7015 13.139 31.7248 13.4793 32.7797 13.7297C33.3922 13.8755 33.6474 13.7589 33.4457 13.088C33.2707 12.5071 33.1005 11.9237 32.9596 11.3331C32.4734 9.2281 33.5842 7.24468 35.5774 6.62486C36.5152 6.3232 37.534 6.40239 38.4139 6.84531C39.2939 7.28823 39.9644 8.05938 40.2807 8.99233C40.8398 10.5066 41.2238 12.0866 41.6662 13.6422C41.7253 13.92 41.749 14.2043 41.7367 14.4881C41.8048 18.8317 36.4135 22.8885 32.2401 21.6488C31.9192 21.554 31.5401 21.2113 31.2338 21.5589C30.9907 21.8214 31.2654 22.1738 31.3189 22.4825C31.4769 23.4013 32.0043 24.0576 32.6995 24.6847C36.8316 28.3988 40.4169 32.5382 42.6336 37.7107C43.1514 38.9066 43.5087 40.1608 43.4625 41.3518ZM36.0198 45.2652C27.1503 41.031 20.602 34.4293 16.1345 25.5768C15.9181 26.0021 15.7577 26.2817 15.6289 26.5734C13.4316 31.621 11.2383 36.6712 9.04908 41.7237C7.05107 46.3371 5.05954 50.9489 3.07449 55.5591C2.46682 56.9689 2.78524 58.1745 3.85717 58.5634C4.6204 58.8405 5.36418 58.6655 6.09581 58.3495C15.8055 54.1639 25.5104 49.9856 35.2104 45.8145C35.4875 45.6906 35.8375 45.6347 36.0198 45.2652ZM40.694 41.24C40.6429 39.4826 40.4509 39.3198 38.6619 39.4486C38.0719 39.4746 37.4873 39.3253 36.9821 39.0194C36.4768 38.7136 36.0735 38.265 35.8229 37.7301C35.3052 36.5804 35.4486 35.3675 36.4573 34.5192C37.2375 33.8629 37.116 33.423 36.5691 32.7473C35.2073 31.0365 33.7395 29.4129 32.1745 27.8859C31.6033 27.339 31.2557 27.2491 30.5921 27.8373C28.4045 29.7818 25.303 28.8922 24.3283 26.1188C23.9807 25.1295 23.7084 24.1111 23.4022 23.1048C22.8091 21.1603 22.1042 20.6231 20.043 20.5891C18.677 20.5647 18.3124 20.9269 18.361 22.3173C18.4193 24.0746 19.1728 25.606 20.026 27.0814C22.8626 31.9962 26.7103 36.0044 31.2484 39.3587C33.4676 40.9969 35.8132 42.4481 38.5866 42.9877C40.1227 43.2988 40.7401 42.764 40.694 41.2449V41.24ZM38.9925 14.6655C38.8904 13.2387 38.3313 11.965 37.9862 10.6525C37.7699 9.83091 37.4587 8.97045 36.399 9.28158C35.3392 9.5927 35.5847 10.5358 35.7889 11.316C36.1648 12.7566 36.5699 14.1899 37.0042 15.6159C37.1476 16.0777 37.0844 16.8798 37.6726 16.8628C38.2609 16.8458 38.5987 16.1336 38.8199 15.577C38.909 15.282 38.9645 14.9779 38.9852 14.6704L38.9925 14.6655ZM25.6967 20.7786C25.8912 22.2638 26.4575 23.6517 26.8537 25.0858C27.0506 25.815 27.5149 26.2404 28.2805 26.0167C29.0826 25.7737 29.2747 25.1952 29.0365 24.3955C28.5673 22.8107 28.1711 21.2064 27.685 19.6289C27.5538 19.2084 27.6607 18.4719 27.0773 18.4549C26.5645 18.4403 26.2728 19.0553 25.9957 19.4977C25.7648 19.885 25.6579 20.3337 25.6894 20.7835L25.6967 20.7786ZM30.772 16.0121C30.0428 16.0121 29.5785 16.0899 29.6782 16.6562C29.7851 17.2785 29.8848 17.9736 30.6188 18.2289C31.6081 18.5716 32.5974 18.9289 33.611 19.189C34.0752 19.3081 34.7971 19.5341 34.9697 18.8681C35.1423 18.2021 34.9697 17.3465 34.2989 17.0743C33.0714 16.5833 31.7588 16.3038 30.7647 16.017L30.772 16.0121Z" fill="#F37121"/>
<path d="M47.5873 20.1904C47.3588 19.3931 47.1401 18.8219 47.0356 18.2313C46.688 16.2454 47.2154 14.5853 48.5183 12.9592C51.192 9.63158 54.3397 8.66904 58.2774 10.3827C58.9069 10.6573 59.6045 10.774 60.2219 11.0584C61.0775 11.4646 61.7535 12.1717 62.1208 13.0447C62.4881 13.9177 62.5209 14.8954 62.213 15.7911C61.9052 16.6867 61.2781 17.4376 60.4517 17.9003C59.6253 18.363 58.6574 18.505 57.7329 18.2993C56.9478 18.1365 56.0193 17.4705 55.4262 17.874C54.6363 18.4112 55.5502 19.3178 55.5964 20.081C55.7033 21.8311 55.1905 23.2749 54.0869 24.6653C51.4132 28.0439 48.229 29.2155 44.1649 27.3585C43.5451 27.0741 42.8402 26.9695 42.2204 26.6754C41.3728 26.2694 40.7037 25.5666 40.3398 24.7001C39.9759 23.8336 39.9426 22.8637 40.2462 21.9743C40.5497 21.0849 41.1691 20.3378 41.9868 19.8746C42.8045 19.4114 43.7637 19.2643 44.6827 19.4612C45.5893 19.6532 46.4789 19.9109 47.5873 20.1904ZM47.8644 25.5865C48.9509 25.533 49.668 25.2195 50.2708 24.6142C50.65 24.2423 50.7569 23.9531 50.1225 23.7756C48.1391 23.2239 46.163 22.6502 44.1722 22.1277C43.5305 21.9599 43.0663 22.3172 42.8524 22.9201C42.8027 23.0443 42.7792 23.1774 42.7833 23.3112C42.7874 23.4449 42.8191 23.5763 42.8764 23.6973C42.9337 23.8182 43.0153 23.926 43.1161 24.0139C43.217 24.1019 43.3349 24.168 43.4625 24.2083C44.9841 24.7503 46.5373 25.183 47.8644 25.5768V25.5865ZM58.1826 15.6208C59.1306 15.6208 59.5414 15.3315 59.6605 14.7481C59.6961 14.6097 59.7034 14.4654 59.6819 14.3241C59.6604 14.1827 59.6106 14.0471 59.5355 13.9255C59.4604 13.8038 59.3615 13.6986 59.2447 13.6161C59.1279 13.5336 58.9957 13.4755 58.8559 13.4453C57.4704 13.0175 56.0825 12.5946 54.6752 12.2689C53.6907 12.0404 52.8765 12.5119 52.1837 13.1998C51.9285 13.4429 51.7219 13.754 52.2445 13.9071C54.3251 14.5124 56.4131 15.103 58.1826 15.611V15.6208ZM52.8351 20.589C52.6726 19.3661 52.3456 18.1707 51.8629 17.0354C51.542 16.2819 50.6913 16.1895 49.9791 16.2017C49.5805 16.2017 49.5051 16.751 49.6048 17.0986C49.9597 18.3407 50.3097 19.5925 50.7764 20.7932C51.0437 21.4811 51.8143 21.5613 52.4438 21.5467C52.9251 21.5224 52.789 20.9877 52.8424 20.5793L52.8351 20.589Z" fill="#F37121"/>
<path d="M24.9189 10.5698C24.7968 10.5716 24.6771 10.5354 24.5765 10.4662C24.4759 10.3969 24.3993 10.298 24.3574 10.1833C24.2038 9.90154 24.0854 9.60193 24.005 9.29124C23.7255 7.83284 22.8917 6.93592 21.4868 6.49354C21.0566 6.35742 20.4757 6.23589 20.4538 5.62093C20.4319 5.00597 21.0128 4.83582 21.4431 4.71915C23.057 4.2792 23.7571 3.1222 24.1168 1.61033C24.2116 1.20197 24.3258 0.657504 24.8776 0.638059C25.4294 0.618613 25.5509 1.18739 25.6457 1.58602C26.0273 3.19998 26.8756 4.3424 28.5406 4.80423C28.9125 4.90631 29.3209 5.12021 29.299 5.62822C29.2771 6.06088 28.9222 6.26749 28.5698 6.35742C26.8051 6.84356 25.9957 8.1148 25.5631 9.77737C25.4099 10.3996 25.1863 10.5503 24.9189 10.5698Z" fill="#F37121"/>
<path d="M46.5737 5.79356C45.7973 5.80134 45.0494 5.50101 44.494 4.95837C43.9386 4.41573 43.621 3.67504 43.6107 2.89863C43.6156 2.12505 43.9275 1.38507 44.4779 0.841478C45.0284 0.29789 45.7722 -0.00477785 46.5458 5.70471e-05C47.3194 0.00489195 48.0593 0.316834 48.6029 0.867259C49.1465 1.41768 49.4492 2.16151 49.4444 2.93509C49.4293 3.69059 49.1217 4.41078 48.5862 4.94397C48.0508 5.47716 47.3293 5.78174 46.5737 5.79356Z" fill="#F37121"/>
<path d="M53.9046 36.2085C53.9088 36.5815 53.8394 36.9517 53.7004 37.2979C53.5615 37.6441 53.3556 37.9595 53.0946 38.2261C52.8337 38.4927 52.5228 38.7053 52.1796 38.8516C51.8365 38.998 51.4678 39.0753 51.0948 39.0791C50.7107 39.0807 50.3301 39.0064 49.9748 38.8606C49.6196 38.7147 49.2966 38.5001 49.0244 38.2291C48.7523 37.9581 48.5364 37.636 48.389 37.2813C48.2417 36.9266 48.1658 36.5464 48.1658 36.1623C48.1627 35.7792 48.2379 35.3995 48.3868 35.0464C48.5357 34.6934 48.7551 34.3746 49.0316 34.1094C49.3082 33.8442 49.636 33.6384 49.995 33.5044C50.3539 33.3705 50.7364 33.3113 51.1191 33.3306C51.4935 33.328 51.8645 33.4013 52.2097 33.5462C52.555 33.6911 52.8672 33.9045 53.1276 34.1736C53.388 34.4426 53.5911 34.7616 53.7247 35.1114C53.8582 35.4612 53.9194 35.8344 53.9046 36.2085Z" fill="#F37121"/>
<path d="M58.9215 33.4036C58.5497 33.2942 58.4354 32.9806 58.3552 32.6744C58.0781 31.5295 57.4607 30.7128 56.2843 30.3749C55.9731 30.285 55.6572 30.1319 55.6766 29.7211C55.6961 29.3103 56.0363 29.179 56.3329 29.0891C57.4583 28.7537 58.0562 27.9832 58.3236 26.8748C58.4038 26.5393 58.4986 26.1018 58.9507 26.0824C59.4028 26.0629 59.5 26.5272 59.5827 26.8529C59.6915 27.3871 59.9434 27.8817 60.3117 28.2837C60.6799 28.6858 61.1505 28.9801 61.6731 29.1353C62.3804 29.3784 62.5724 30.0176 61.7581 30.3069C60.4699 30.7638 59.7917 31.6146 59.4952 32.8834C59.4802 33.0255 59.4135 33.157 59.3077 33.253C59.2019 33.3489 59.0644 33.4025 58.9215 33.4036Z" fill="#F37121"/>
<path d="M57.9347 1.70028C58.4222 1.69309 58.8941 1.87134 59.2551 2.19895C59.6162 2.52657 59.8392 2.97909 59.8792 3.46495C59.9254 4.4202 59.0625 5.32684 58.0684 5.36816C57.8264 5.38482 57.5836 5.35155 57.355 5.27042C57.1264 5.18929 56.9169 5.06203 56.7396 4.89655C56.5623 4.73106 56.4208 4.53088 56.3241 4.30844C56.2274 4.086 56.1774 3.84606 56.1773 3.6035C56.1593 3.36122 56.1913 3.11784 56.2714 2.88846C56.3514 2.65908 56.4778 2.44861 56.6426 2.27012C56.8074 2.09164 57.0071 1.94895 57.2294 1.85092C57.4517 1.75289 57.6918 1.70161 57.9347 1.70028Z" fill="#F37121"/>
<path d="M11.086 42.5064C11.6645 41.1234 12.1336 39.609 13.0086 38.2916C13.1579 38.0684 13.3835 37.9074 13.6431 37.8389C13.9028 37.7704 14.1785 37.7992 14.4184 37.9197C15.0164 38.1628 15.3664 38.6344 15.2327 39.2493C14.8695 40.7773 14.2569 42.235 13.4194 43.5637C13.1083 44.079 12.503 44.2079 11.9051 43.9454C11.3072 43.6829 11.0957 43.2064 11.086 42.5064Z" fill="#F37121"/>
<path d="M15.6022 36.42C14.9143 36.3763 14.4427 35.9655 14.3868 35.1512C14.3261 34.0525 15.2983 32.6816 16.1369 32.7205C16.9172 32.7546 17.413 33.1726 17.4519 34.0039C17.5151 35.1245 16.589 36.403 15.6022 36.42Z" fill="#F37121"/>
</svg>
