<svg width="44" height="50" viewBox="0 0 44 50" fill="none" xmlns="http://www.w3.org/2000/svg">
<path d="M21.7795 49.6495C16.205 49.6616 10.7371 49.0306 5.5275 46.9012C3.99948 46.2757 2.58469 45.4491 1.44032 44.2222C-0.496636 42.1446 -0.480147 39.5326 1.49089 37.4935C2.91997 36.0204 4.70303 35.1487 6.58612 34.4517C8.45496 33.7502 10.389 33.2365 12.3596 32.9182C13.2391 32.7819 13.272 32.4895 12.8257 31.809C11.3604 29.5708 9.95986 27.2986 8.4901 25.0637C1.87454 15.0305 8.10425 1.56958 20.0492 0.109721C28.5819 -0.93351 36.7728 5.59301 37.7478 14.1334C38.2085 18.1854 37.2741 21.8461 35.0656 25.2363C33.6585 27.3931 32.2799 29.5675 30.9003 31.7408C30.3001 32.6862 30.3386 32.7082 31.4071 32.9226C34.4445 33.5327 37.4334 34.2923 40.1333 35.8907C40.9678 36.3776 41.7226 36.9897 42.3715 37.7056C44.0919 39.6261 44.0941 42.1776 42.3528 44.0815C40.7588 45.8217 38.6877 46.7748 36.5089 47.5212C32.2536 48.9734 27.5288 49.6451 21.7795 49.6495ZM8.93642 16.1144C8.9015 18.5412 9.57542 20.9256 10.8756 22.9751C11.4681 23.9314 12.0925 24.868 12.6971 25.8178C15.5831 30.3469 18.4666 34.8775 21.3475 39.4095C21.6498 39.8844 21.8663 40.1197 22.2731 39.4777C25.8722 33.8009 29.6296 28.2198 33.0517 22.4386C35.6394 18.0667 35.3987 13.4453 32.6735 9.17341C29.9483 4.90155 25.9238 2.83597 20.8143 3.24711C14.0031 3.79566 8.9595 9.31412 8.93642 16.1144ZM22.0829 46.5758C25.0785 46.4516 28.3566 46.3406 31.5742 45.6381C34.2202 45.0599 36.8376 44.3761 39.111 42.8162C40.949 41.5532 40.9611 40.3439 39.1923 39.0248C38.7778 38.7207 38.3405 38.4491 37.8842 38.2124C35.1997 36.802 32.2778 36.1886 29.3174 35.7247C28.6578 35.6225 28.251 35.8489 27.896 36.4216C26.4735 38.717 25.0125 40.9892 23.5526 43.2604C22.3918 45.0654 21.2837 45.0775 20.136 43.301C19.0543 41.6268 18.0199 39.9218 16.914 38.263C14.8253 35.1256 16.0038 35.4268 12.0221 36.1468C9.29149 36.6404 6.629 37.4198 4.35455 39.1149C2.75068 40.3088 2.75838 41.4784 4.35455 42.6766C5.57477 43.5945 6.97198 44.175 8.41095 44.6554C12.7521 46.1174 17.2658 46.4626 22.0829 46.5758Z" fill="#2639FF"/>
<path d="M29.2041 16.1407C29.2184 20.1356 25.8238 23.5379 21.8256 23.5346C17.8275 23.5313 14.4351 20.1268 14.4603 16.1319C14.4812 12.1635 17.8187 8.81941 21.7893 8.78753C25.7776 8.75455 29.1898 12.1382 29.2041 16.1407ZM26.0271 16.1066C26.0095 13.7596 24.1286 11.937 21.7509 11.9634C20.6446 11.9884 19.593 12.4491 18.8247 13.2454C18.0563 14.0417 17.6334 15.1091 17.6479 16.2155C17.6624 17.3219 18.1131 18.3779 18.902 19.1538C19.691 19.9296 20.7543 20.3627 21.8608 20.3587C24.2144 20.3488 26.0458 18.48 26.0271 16.1066Z" fill="#2639FF"/>
</svg>
