<svg xmlns="http://www.w3.org/2000/svg" width="28" height="20" fill="none" xmlns:v="https://vecta.io/nano"><path d="M14.047 1.08l1.149 1.969 2.256.54-1.565 1.674.171 2.26-2.117-.934-2.151.856.256-2.252-1.499-1.731 2.275-.457 1.224-1.926z" fill="#2639ff"/><path d="M12.917 9.21c-.02 2.567.05 8.595 1.083 10.79 1.034-2.192 1.104-8.22 1.083-10.787-.016-2.058-2.151-1.955-2.167-.002z" fill="#f37121"/><path d="M5.617 9.987s6.365 2.166 6.359 9.647c0 0-3.089-6.586-7.834-7.408l1.475-2.24z" fill="#2639ff"/><path d="M2.976 11.817l.403-1.623 1.485-.829-1.457-.876-.351-1.634-1.304 1.081L.05 7.756.701 9.3 0 10.824l1.707-.127 1.269 1.121z" fill="#f37121"/><path d="M22.383 9.987s-6.365 2.166-6.356 9.647c0 0 3.089-6.586 7.833-7.408l-1.477-2.24z" fill="#2639ff"/><path d="M25.024 11.817l-.403-1.623-1.484-.829 1.457-.876.351-1.634 1.304 1.081 1.702-.179-.651 1.544.701 1.523-1.707-.127-1.269 1.121zM6.121 0l.561.961 1.101.264-.764.818.083 1.103-1.034-.456-1.05.418.125-1.1-.732-.845L5.523.94 6.121 0zm15.804 0l.561.961 1.102.264-.764.818.083 1.103-1.034-.456-1.05.418.125-1.1-.732-.845L21.328.94l.598-.94z" fill="#f37121"/></svg>