<?xml version="1.0" standalone="no"?>
<!DOCTYPE svg PUBLIC "-//W3C//DTD SVG 20010904//EN"
 "http://www.w3.org/TR/2001/REC-SVG-20010904/DTD/svg10.dtd">
<svg version="1.0" xmlns="http://www.w3.org/2000/svg"
 width="288.000000pt" height="288.000000pt" viewBox="0 0 288.000000 288.000000"
 preserveAspectRatio="xMidYMid meet">
<metadata>
Created by potrace 1.14, written by Peter Selinger 2001-2017
</metadata>
<g transform="translate(0.000000,288.000000) scale(0.100000,-0.100000)"
fill="#000000" stroke="none">
<path d="M1892 2008 c-8 -8 -12 -48 -12 -115 l0 -103 -75 0 -75 0 0 -30 0 -30
75 0 75 0 0 -29 c0 -30 -14 -41 -52 -41 -11 0 -33 -13 -49 -29 l-29 -29 -1 46
c0 26 -3 41 -6 35 -2 -7 -9 -13 -14 -13 -6 0 -7 6 -3 13 6 9 4 9 -7 1 -8 -6
-39 -11 -69 -12 -30 -1 -49 1 -42 5 10 4 7 9 -10 17 -18 9 -23 20 -23 48 0 20
-3 34 -7 31 -12 -6 -10 -61 2 -68 6 -3 10 -11 10 -17 0 -6 -6 -6 -15 2 -13 11
-14 10 -10 -2 4 -10 -1 -17 -15 -21 -13 -3 -23 0 -27 9 -3 8 -12 14 -20 14 -8
0 -12 -4 -8 -9 8 -14 -22 -17 -83 -11 -29 4 -55 4 -58 1 -3 -3 -37 -4 -76 -2
-77 3 -88 -3 -88 -51 l0 -28 78 0 c86 0 102 -8 102 -52 0 -37 -24 -48 -109
-48 l-71 0 0 -50 0 -50 85 0 c73 0 86 -3 95 -19 7 -13 7 -28 0 -45 -9 -25 -12
-26 -95 -26 l-85 0 0 -30 0 -30 -65 0 c-62 0 -65 1 -71 27 -10 49 -13 53 -38
53 -36 0 -42 -35 -21 -118 48 -192 189 -323 368 -339 l57 -6 0 -83 0 -84 -120
0 c-160 0 -200 -20 -200 -100 0 -22 9 -41 29 -61 l29 -29 317 0 317 0 29 29
c20 20 29 39 29 61 0 80 -43 100 -215 100 l-125 0 0 68 c0 40 5 75 13 84 7 9
35 18 66 21 70 8 168 55 224 106 55 51 111 156 132 245 19 83 14 108 -23 104
-22 -2 -29 -10 -36 -40 l-10 -38 -58 0 c-58 0 -58 0 -58 30 l0 30 -85 0 c-73
0 -86 3 -95 19 -14 27 -13 37 6 55 11 12 36 16 95 16 l79 0 0 50 0 50 -71 0
c-85 0 -109 11 -109 48 0 43 17 52 100 52 l76 0 12 -44 c12 -48 91 -141 99
-118 7 20 21 14 25 -10 3 -27 46 -38 59 -16 5 7 9 55 9 106 0 54 4 92 10 92 6
0 10 -35 10 -85 l0 -85 40 0 40 0 2 153 c2 125 3 107 8 -98 5 -233 6 -250 24
-253 10 -2 23 1 28 6 6 6 9 71 9 157 l-2 147 31 -26 c18 -14 42 -29 56 -32 23
-6 24 -9 24 -103 0 -53 4 -102 9 -109 4 -8 19 -12 32 -10 23 3 24 6 27 113 1
60 7 114 12 119 7 7 10 -3 10 -27 0 -36 1 -37 40 -37 l40 0 2 78 c1 42 5 -42
8 -188 l5 -265 30 0 30 0 3 203 c2 195 3 203 22 197 14 -4 23 1 34 22 37 73
28 141 -24 171 -24 13 -30 24 -30 50 l0 32 55 0 55 0 2 -212 c3 -210 3 -213
25 -216 22 -3 41 20 37 46 -1 6 -3 139 -4 295 -2 155 -5 270 -7 255 -3 -19
-10 -28 -23 -28 -15 0 -20 9 -23 43 -2 23 -4 5 -5 -40 l-2 -83 -55 0 -55 0 -2
103 c0 56 -3 86 -5 67 -2 -19 -6 -51 -9 -70 -5 -30 -8 -32 -14 -15 -7 16 -9
17 -9 3 -1 -9 -5 -19 -10 -22 -4 -3 -9 31 -10 77 -3 124 -11 106 -11 -26 l0
-117 -55 0 -55 0 0 107 c0 116 -7 138 -11 32 -2 -59 -4 -66 -21 -61 -12 3 -19
-1 -20 -14 -1 -11 -5 19 -8 66 l-6 85 -2 -107 -2 -108 -55 0 -55 0 0 63 0 62
-20 -25 c-12 -16 -15 -27 -8 -31 7 -4 7 -9 -1 -13 -6 -4 -13 3 -15 16 -3 13
-7 32 -9 43 -3 11 -5 -10 -6 -47 l-1 -68 -55 0 -55 0 -2 83 c-1 53 -3 65 -5
35 -4 -47 -18 -63 -29 -33 -4 8 -10 12 -16 9 -5 -3 -8 20 -6 58 3 58 5 63 25
62 12 0 20 3 17 8 -7 12 -28 10 -42 -4z m78 -308 c0 -16 -4 -30 -10 -30 -5 0
-10 14 -10 30 0 17 5 30 10 30 6 0 10 -13 10 -30z m260 11 c0 -12 -9 -21 -24
-25 -14 -3 -38 -18 -55 -32 l-31 -26 0 51 0 51 55 0 c47 0 55 -3 55 -19z m90
-61 c0 -47 -4 -80 -10 -80 -6 0 -10 33 -10 80 0 47 4 80 10 80 6 0 10 -33 10
-80z m87 18 c-2 -13 -4 -3 -4 22 0 25 2 35 4 23 2 -13 2 -33 0 -45z m-1140
-14 c-3 -3 -12 -4 -19 -1 -8 3 -5 6 6 6 11 1 17 -2 13 -5z m963 -70 c0 -24 -4
-34 -12 -32 -24 8 -22 68 2 68 5 0 10 -16 10 -36z m-350 -41 l0 -56 -25 23
c-27 25 -32 59 -13 78 27 27 38 13 38 -45z m-671 -410 c35 -69 104 -114 205
-135 49 -11 67 -10 124 5 86 23 136 56 174 118 31 49 31 49 84 49 30 0 54 -3
54 -7 0 -5 -13 -31 -30 -59 -121 -212 -467 -256 -654 -84 -43 40 -96 117 -96
139 0 7 24 11 60 11 59 0 60 0 79 -37z"/>
<path d="M672 1935 c-1 -42 -6 -65 -11 -57 -7 11 -11 10 -24 -2 -15 -15 -16
-12 -20 31 -2 31 -4 19 -5 -34 l-2 -83 -55 0 -55 0 -2 103 c-1 56 -3 82 -5 57
-5 -66 -9 -73 -33 -60 -19 10 -20 8 -20 -45 l0 -55 -60 0 -60 0 0 33 c0 44
-14 65 -28 42 -9 -17 -10 -17 -16 3 -4 12 -5 25 -2 30 2 4 1 23 -4 42 -5 20
-7 -106 -7 -300 l2 -335 22 -3 c38 -5 45 26 38 164 -4 68 -3 124 2 123 4 0 32
-30 61 -65 l53 -64 -1 -183 c0 -100 -1 -192 0 -205 0 -19 5 -23 28 -20 l27 3
3 185 c2 168 4 186 22 205 20 22 20 22 0 40 -11 10 -20 31 -20 47 0 27 1 28
55 28 l54 0 3 -147 3 -148 30 0 30 0 6 95 c4 52 7 157 8 233 l1 137 50 0 c43
0 50 -3 50 -19 0 -11 -4 -23 -10 -26 -5 -3 -10 -19 -10 -36 0 -16 5 -29 10
-29 6 0 10 -70 10 -189 0 -186 0 -190 22 -197 41 -13 50 18 43 150 l-6 119 23
-7 c13 -4 40 -10 61 -13 36 -6 37 -7 37 -49 0 -41 2 -44 26 -44 17 0 28 6 31
20 4 15 14 20 39 20 l34 0 0 150 0 150 30 0 c27 0 30 3 30 30 l0 30 -65 0 -65
0 -1 88 c-1 48 -4 74 -6 57 -8 -66 -13 -77 -28 -65 -8 6 -16 21 -18 33 -2 12
-5 -8 -6 -45 l-1 -68 -60 0 -60 0 -2 68 c-1 50 -2 56 -5 23 -4 -39 -5 -42 -18
-25 -12 15 -15 16 -17 4 -1 -8 -5 21 -8 65 l-6 80 -2 -107 -2 -108 -55 0 -54
0 -4 108 c-2 77 -3 88 -5 37z m-367 -145 c-3 -5 -12 -10 -18 -10 -7 0 -6 4 3
10 19 12 23 12 15 0z m123 -97 l-3 -38 -42 3 c-26 2 -43 -1 -43 -7 0 -6 -4
-11 -10 -11 -11 0 -14 73 -3 83 3 4 28 7 55 7 l49 0 -3 -37z m182 -13 c0 -44
-3 -50 -24 -56 -13 -3 -37 -4 -52 -2 -28 3 -29 5 -30 56 l-1 52 53 0 54 0 0
-50z m355 25 c0 -17 -8 -20 -49 -23 -52 -3 -72 7 -62 33 4 13 17 15 58 13 45
-3 53 -6 53 -23z m5 -119 c0 -41 -20 -52 -51 -27 -18 15 -20 21 -10 39 7 14
21 22 36 22 22 0 25 -5 25 -34z"/>
<path d="M142 1933 c-2 -59 -3 -63 -24 -59 -14 2 -25 13 -29 27 -4 13 -6 -95
-6 -241 l2 -265 28 -3 c16 -2 29 2 32 10 3 7 4 144 2 303 -1 160 -3 262 -5
228z"/>
<path d="M2822 1925 c-1 -38 -6 -65 -10 -60 -4 6 -14 10 -22 10 -11 0 -15 13
-16 48 -1 27 -5 51 -8 54 -8 8 -8 -551 0 -571 7 -19 53 -21 59 -3 3 7 4 143 2
302 -1 160 -3 259 -5 220z"/>
<path d="M81 1944 c0 -11 3 -14 6 -6 3 7 2 16 -1 19 -3 4 -6 -2 -5 -13z"/>
<path d="M1741 1814 c0 -11 3 -14 6 -6 3 7 2 16 -1 19 -3 4 -6 -2 -5 -13z"/>
<path d="M1361 1739 c-1 -29 -15 -44 -46 -52 -19 -4 -19 -5 1 -6 29 -1 57 32
51 61 -4 22 -4 21 -6 -3z"/>
<path d="M1381 1694 c0 -11 3 -14 6 -6 3 7 2 16 -1 19 -3 4 -6 -2 -5 -13z"/>
<path d="M1258 1683 c7 -3 16 -2 19 1 4 3 -2 6 -13 5 -11 0 -14 -3 -6 -6z"/>
<path d="M1265 474 c-9 -10 -14 -25 -12 -35 5 -18 -5 -19 -181 -19 -145 0
-183 -3 -174 -12 7 -7 12 -22 12 -35 0 -17 -6 -23 -23 -23 -18 0 -22 5 -22 33
0 29 -3 32 -32 35 -20 2 -33 -1 -33 -8 0 -7 8 -9 19 -5 10 3 23 -1 30 -9 10
-12 8 -17 -9 -26 l-21 -11 22 -18 c25 -20 19 -41 -12 -41 -11 0 -24 11 -31 25
-11 25 -28 34 -28 15 0 -19 48 -60 69 -60 19 0 46 32 35 42 -3 3 4 8 16 11 18
4 20 0 20 -34 0 -21 5 -39 10 -39 6 0 10 30 10 70 0 68 1 70 25 70 24 0 25 -2
25 -70 0 -40 4 -70 10 -70 6 0 10 30 10 70 0 63 2 70 20 70 16 0 20 -7 20 -31
0 -49 17 -71 53 -67 26 2 32 -1 38 -22 4 -16 7 1 8 48 l1 72 60 0 c67 0 75 -7
62 -55 -6 -23 -14 -30 -33 -30 -33 0 -34 39 -1 43 27 4 30 22 3 22 -25 0 -51
-26 -51 -50 0 -25 33 -42 64 -34 21 5 24 3 19 -15 -3 -12 -1 -21 6 -21 6 0 11
16 11 35 0 24 6 37 20 45 23 13 36 -6 27 -40 -3 -11 -1 -22 4 -25 10 -7 22 36
17 62 -2 13 -12 18 -36 18 -27 0 -32 4 -32 22 0 21 5 23 55 23 l55 0 0 -70 c0
-40 4 -70 10 -70 6 0 10 29 10 66 0 52 4 70 18 80 15 12 15 13 1 14 -10 0 -33
16 -52 35 -39 39 -84 47 -112 19z m93 -20 c12 -8 22 -19 22 -25 0 -13 -97 -12
-105 1 -22 36 40 54 83 24z m-228 -89 c0 -24 -6 -37 -21 -45 -28 -16 -49 4
-49 46 0 32 2 34 35 34 33 0 35 -2 35 -35z"/>
<path d="M1540 410 c0 -7 8 -9 19 -5 10 3 23 -1 30 -9 10 -12 8 -17 -9 -26
l-21 -11 22 -18 c25 -20 19 -41 -12 -41 -11 0 -24 11 -31 25 -6 14 -15 25 -20
25 -16 0 -8 -21 17 -46 30 -30 66 -29 80 3 17 40 35 36 35 -7 0 -22 5 -40 10
-40 6 0 10 30 10 70 0 68 1 70 25 70 24 0 25 -2 25 -70 0 -40 4 -70 10 -70 6
0 10 30 10 70 l0 70 61 0 60 0 -3 -42 c-3 -40 -5 -43 -33 -43 -23 0 -30 4 -30
20 0 14 8 21 28 23 28 3 38 22 11 22 -29 0 -54 -21 -54 -44 0 -32 24 -50 55
-42 20 5 25 3 25 -14 0 -11 5 -20 10 -20 6 0 10 30 10 70 0 68 1 70 25 70 24
0 25 -2 25 -70 0 -40 4 -70 10 -70 6 0 10 30 10 70 l0 70 85 0 c69 0 85 -3 85
-15 0 -10 -11 -15 -35 -15 -34 0 -46 -12 -25 -25 6 -3 10 -15 10 -26 0 -34
-38 -23 -57 16 -9 19 -20 32 -25 29 -13 -8 21 -64 47 -76 34 -15 59 6 51 44
-5 23 -2 28 14 28 17 0 20 -7 20 -50 0 -27 5 -50 10 -50 6 0 10 30 10 70 0 56
3 70 15 70 8 0 15 5 15 10 0 6 -97 10 -270 10 -173 0 -270 -4 -270 -10 0 -5 5
-10 10 -10 6 0 10 -11 10 -25 0 -20 -5 -25 -24 -25 -21 0 -24 4 -22 33 1 29
-2 32 -31 35 -20 2 -33 -1 -33 -8z"/>
<path d="M2036 251 c-4 -5 -2 -12 3 -15 5 -4 12 -2 15 3 4 5 2 12 -3 15 -5 4
-12 2 -15 -3z"/>
</g>
</svg>
